# xmcd
#
# Track frame offsets:
#	150
#	5957
#	28875
#	48050
#	65202
#	88992
#	108975
#	129645
#	152010
#
# Disc length: 2279 seconds
#
# Revision: 1
# Processed by: cddbd v1.5.1PL0 Copyright (c) Steve Scherf et al.
# Submitted via: CDex 1.50Beta5
#
DISCID=7c08e509
DTITLE=SEVEN COLOR LOVERS - SEVEN COLOR LOVERS
DYEAR=1996
DGENRE=Pop
TTITLE0=SEVEN COLOR LOVERS
TTITLE1=ひまわり
TTITLE2=フィールドの少年
TTITLE3=真夏のリズム
TTITLE4=ルナティック・ロマンティック
TTITLE5=Cheers of you
TTITLE6=冷たい雨が降る
TTITLE7=Sea of love
TTITLE8=SEVEN COLOR LOVERS
EXTD=
EXTT0=
EXTT1=
EXTT2=
EXTT3=
EXTT4=
EXTT5=
EXTT6=
EXTT7=
EXTT8=
PLAYORDER=
